<svg version="1.1" viewBox="0.0 0.0 161.70866141732284 156.29658792650918" fill="none" stroke="none" stroke-linecap="square" stroke-miterlimit="10" xmlns:xlink="http://www.w3.org/1999/xlink" xmlns="http://www.w3.org/2000/svg"><clipPath id="p.0"><path d="m0 0l161.70866 0l0 156.29659l-161.70866 0l0 -156.29659z" clip-rule="nonzero"/></clipPath><g clip-path="url(#p.0)"><path fill="#000000" fill-opacity="0.0" d="m0 0l161.70866 0l0 156.29659l-161.70866 0z" fill-rule="evenodd"/><path fill="#ffffff" d="m20.058525 78.74555l0 0c0 -23.09159 15.560749 -41.811024 34.755905 -41.811024c19.19516 0 34.755905 18.719433 34.755905 41.811024l-17.377953 0c0 -13.494011 -7.7803726 -24.433071 -17.377953 -24.433071c-9.59758 0 -17.377953 10.93906 -17.377953 24.433071z" fill-rule="evenodd"/><path stroke="#ffffff" stroke-width="1.0" stroke-linejoin="round" stroke-linecap="butt" d="m20.058525 78.74555l0 0c0 -23.09159 15.560749 -41.811024 34.755905 -41.811024c19.19516 0 34.755905 18.719433 34.755905 41.811024l-17.377953 0c0 -13.494011 -7.7803726 -24.433071 -17.377953 -24.433071c-9.59758 0 -17.377953 10.93906 -17.377953 24.433071z" fill-rule="evenodd"/><path fill="#ffffff" d="m141.64664 78.43591l0 0c0 23.09159 -15.560745 41.81102 -34.755905 41.81102c-19.195152 0 -34.755905 -18.719429 -34.755905 -41.81102l17.377953 0c0 13.494011 7.7803726 24.433067 17.377953 24.433067c9.59758 0 17.377953 -10.939056 17.377953 -24.433067z" fill-rule="evenodd"/><path stroke="#ffffff" stroke-width="1.0" stroke-linejoin="round" stroke-linecap="butt" d="m141.64664 78.43591l0 0c0 23.09159 -15.560745 41.81102 -34.755905 41.81102c-19.195152 0 -34.755905 -18.719429 -34.755905 -41.81102l17.377953 0c0 13.494011 7.7803726 24.433067 17.377953 24.433067c9.59758 0 17.377953 -10.939056 17.377953 -24.433067z" fill-rule="evenodd"/><path fill="#000000" fill-opacity="0.0" d="m22.318897 39.23005l0 0c0 -10.747301 8.712408 -19.459707 19.459705 -19.459707l78.15145 0l0 0c5.1610413 0 10.110687 2.0502129 13.760101 5.6996155c3.6493988 3.6494026 5.6996155 8.599054 5.6996155 13.760092l0 77.836494c0 10.747299 -8.712418 19.459702 -19.459717 19.459702l-78.15145 0c-10.747297 0 -19.459705 -8.712402 -19.459705 -19.459702z" fill-rule="evenodd"/><path stroke="#ffffff" stroke-width="8.0" stroke-linejoin="round" stroke-linecap="butt" d="m22.318897 39.23005l0 0c0 -10.747301 8.712408 -19.459707 19.459705 -19.459707l78.15145 0l0 0c5.1610413 0 10.110687 2.0502129 13.760101 5.6996155c3.6493988 3.6494026 5.6996155 8.599054 5.6996155 13.760092l0 77.836494c0 10.747299 -8.712418 19.459702 -19.459717 19.459702l-78.15145 0c-10.747297 0 -19.459705 -8.712402 -19.459705 -19.459702z" fill-rule="evenodd"/></g></svg>